arm26_optimize_states
version=1
nRows=34
nColumns=17
inDegrees=yes

# SIMM Motion File Header:
name arm26_optimize_states
datacolumns 17
datarows 34
otherdata 1
range 0.63838152 0.91397007
endheader
time	r_shoulder_elev	r_elbow_flex	r_shoulder_elev_u	r_elbow_flex_u	TRIlong.activation	TRIlong.fiber_length	TRIlat.activation	TRIlat.fiber_length	TRImed.activation	TRImed.fiber_length	BIClong.activation	BIClong.fiber_length	BICshort.activation	BICshort.fiber_length	BRA.activation	BRA.fiber_length
      0.63838152	      2.01608888	      9.39108411	     -0.76997962	     13.16908492	      0.01000965	      0.14156052	      0.01000965	      0.07409187	      0.01000965	      0.06911445	      0.01000965	      0.14313284	      0.01000965	      0.14592177	      0.01000965	      0.08714565
      0.64601200	      2.00806921	      9.49165107	     -1.33192855	     13.18790005	      0.01000875	      0.14159551	      0.01000875	      0.07413104	      0.01000875	      0.06915345	      0.01000875	      0.14311029	      0.01000875	      0.14589748	      0.01000875	      0.08714457
      0.65364247	      1.99576130	      9.59232394	     -1.89415430	     13.19822710	      0.01000793	      0.14162796	      0.01000793	      0.07417030	      0.01000793	      0.06919253	      0.01000793	      0.14308983	      0.01000793	      0.14587343	      0.01000793	      0.08714343
      0.66127295	      1.97916829	      9.69303264	     -2.45449405	     13.19571434	      0.01000719	      0.14165782	      0.01000719	      0.07420961	      0.01000719	      0.06923167	      0.01000719	      0.14306910	      0.01000719	      0.14584967	      0.01000719	      0.08714223
      0.66890342	      1.95830620	      9.79368779	     -3.01345695	     13.18612688	      0.01000652	      0.14168509	      0.01000652	      0.07424896	      0.01000652	      0.06927084	      0.01000652	      0.14305097	      0.01000652	      0.14582619	      0.01000652	      0.08714096
      0.67653390	      1.93319156	      9.89422713	     -3.56838012	     13.16324052	      0.01000591	      0.14170974	      0.01000591	      0.07428830	      0.01000591	      0.06931000	      0.01000591	      0.14303213	      0.01000591	      0.14580304	      0.01000591	      0.08713964
      0.68320794	      1.90776311	      9.98199909	     -4.05126663	     13.13845276	      0.01000542	      0.14172914	      0.01000542	      0.07432269	      0.01000542	      0.06934423	      0.01000542	      0.14301808	      0.01000542	      0.14578306	      0.01000542	      0.08713843
      0.68988199	      1.87912528	     10.06957668	     -4.52988101	     13.10449811	      0.01000497	      0.14174652	      0.01000497	      0.07435703	      0.01000497	      0.06937841	      0.01000497	      0.14300382	      0.01000497	      0.14576336	      0.01000497	      0.08713718
      0.69871654	      1.83633010	     10.18511617	     -5.15709990	     13.05063937	      0.01000444	      0.14176643	      0.01000444	      0.07440239	      0.01000444	      0.06942355	      0.01000444	      0.14298703	      0.01000444	      0.14573773	      0.01000444	      0.08713547
      0.70647644	      1.79419913	     10.28616798	     -5.70012342	     12.99185556	      0.01000402	      0.14178099	      0.01000402	      0.07444210	      0.01000402	      0.06946308	      0.01000402	      0.14297258	      0.01000402	      0.14571566	      0.01000402	      0.08713389
      0.71423635	      1.74788332	     10.38673404	     -6.23594670	     12.92707159	      0.01000364	      0.14179284	      0.01000364	      0.07448168	      0.01000364	      0.06950247	      0.01000364	      0.14296051	      0.01000364	      0.14569402	      0.01000364	      0.08713227
      0.72199625	      1.69744435	     10.48676089	     -6.76218950	     12.85121051	      0.01000329	      0.14180198	      0.01000329	      0.07452108	      0.01000329	      0.06954168	      0.01000329	      0.14294819	      0.01000329	      0.14567285	      0.01000329	      0.08713059
      0.72975615	      1.64295764	     10.58617322	     -7.27954133	     12.77060065	      0.01000298	      0.14180842	      0.01000298	      0.07456028	      0.01000298	      0.06958069	      0.01000298	      0.14293851	      0.01000298	      0.14565216	      0.01000298	      0.08712887
      0.73751605	      1.58449837	     10.68492536	     -7.78538557	     12.67917231	      0.01000269	      0.14181220	      0.01000269	      0.07459926	      0.01000269	      0.06961948	      0.01000269	      0.14292838	      0.01000269	      0.14563198	      0.01000269	      0.08712710
      0.74527595	      1.52215630	     10.78294578	     -8.28066802	     12.58405932	      0.01000244	      0.14181331	      0.01000244	      0.07463799	      0.01000244	      0.06965803	      0.01000244	      0.14292101	      0.01000244	      0.14561231	      0.01000244	      0.08712528
      0.75222344	      1.46311957	     10.87004807	     -8.71253599	     12.48842097	      0.01000223	      0.14181153	      0.01000223	      0.07467244	      0.01000223	      0.06969231	      0.01000223	      0.14291401	      0.01000223	      0.14559517	      0.01000223	      0.08712361
      0.75917092	      1.40112037	     10.95645543	     -9.13349128	     12.38435711	      0.01000204	      0.14180731	      0.01000204	      0.07470666	      0.01000204	      0.06972636	      0.01000204	      0.14290880	      0.01000204	      0.14557848	      0.01000204	      0.08712192
      0.76794568	      1.31870652	     11.06448838	     -9.64738983	     12.23596922	      0.01000182	      0.14179900	      0.01000182	      0.07474949	      0.01000182	      0.06976897	      0.01000182	      0.14290286	      0.01000182	      0.14555808	      0.01000182	      0.08711974
      0.77607461	      1.23840960	     11.16334638	    -10.10565256	     12.08484329	      0.01000164	      0.14178839	      0.01000164	      0.07478874	      0.01000164	      0.06980802	      0.01000164	      0.14289925	      0.01000164	      0.14553989	      0.01000164	      0.08711767
      0.78420353	      1.15446191	     11.26091694	    -10.54514850	     11.91808252	      0.01000148	      0.14177502	      0.01000148	      0.07482753	      0.01000148	      0.06984661	      0.01000148	      0.14289598	      0.01000148	      0.14552243	      0.01000148	      0.08711559
      0.79233246	      1.06701733	     11.35708174	    -10.96629935	     11.74059731	      0.01000133	      0.14175895	      0.01000133	      0.07486581	      0.01000133	      0.06988469	      0.01000133	      0.14289478	      0.01000133	      0.14550571	      0.01000133	      0.08711346
      0.80046139	      0.97622944	     11.45175035	    -11.36727714	     11.54886252	      0.01000120	      0.14174022	      0.01000120	      0.07490354	      0.01000120	      0.06992223	      0.01000120	      0.14289409	      0.01000120	      0.14548979	      0.01000120	      0.08711133
      0.81046916	      0.86010884	     11.56609296	    -11.83369600	     11.29953976	      0.01000105	      0.14171362	      0.01000105	      0.07494919	      0.01000105	      0.06996763	      0.01000105	      0.14289506	      0.01000105	      0.14547129	      0.01000105	      0.08710866
      0.82448193	      0.69000626	     11.72185462	    -12.43439209	     10.92871016	      0.01000088	      0.14167000	      0.01000088	      0.07501147	      0.01000088	      0.07002956	      0.01000088	      0.14289903	      0.01000088	      0.14544751	      0.01000088	      0.08710510
      0.83507625	      0.55605764	     11.83608206	    -12.84608369	     10.63251543	      0.01000077	      0.14163239	      0.01000077	      0.07505724	      0.01000077	      0.07007508	      0.01000077	      0.14290418	      0.01000077	      0.14543134	      0.01000077	      0.08710128
      0.84307702	      0.45211816	     11.92023586	    -13.13283180	     10.40337244	      0.01000069	      0.14160139	      0.01000069	      0.07509100	      0.01000069	      0.07010865	      0.01000069	      0.14290931	      0.01000069	      0.14542007	      0.01000069	      0.08710017
      0.85107780	      0.34597288	     12.00252915	    -13.39718301	     10.16687726	      0.01000062	      0.14156831	      0.01000062	      0.07512405	      0.01000062	      0.07014151	      0.01000062	      0.14291547	      0.01000062	      0.14540968	      0.01000062	      0.08709759
      0.86248776	      0.19113737	     12.11656802	    -13.73612356	      9.82243308	      0.01000054	      0.14151768	      0.01000054	      0.07516991	      0.01000054	      0.07018711	      0.01000054	      0.14292595	      0.01000054	      0.14539636	      0.01000054	      0.08709539
      0.87048428	      0.08044355	     12.19412249	    -13.94534892	      9.57341899	      0.01000049	      0.14147992	      0.01000049	      0.07520115	      0.01000049	      0.07021816	      0.01000049	      0.14293443	      0.01000049	      0.14538816	      0.01000049	      0.08709213
      0.87848081	     -0.03183220	     12.26967285	    -14.13201856	      9.32212440	      0.01000044	      0.14144039	      0.01000044	      0.07523161	      0.01000044	      0.07024844	      0.01000044	      0.14294381	      0.01000044	      0.14538081	      0.01000044	      0.08709077
      0.88647734	     -0.14550622	     12.34319675	    -14.29483596	      9.06612374	      0.01000040	      0.14139919	      0.01000040	      0.07526129	      0.01000040	      0.07027794	      0.01000040	      0.14295406	      0.01000040	      0.14537434	      0.01000040	      0.08708831
      0.89795845	     -0.31077802	     12.44515269	    -14.48770292	      8.69510922	      0.01000034	      0.14133732	      0.01000034	      0.07530251	      0.01000034	      0.07031891	      0.01000034	      0.14297023	      0.01000034	      0.14536657	      0.01000034	      0.08708615
      0.90596426	     -0.42719932	     12.51371239	    -14.59231652	      8.43155363	      0.01000031	      0.14129247	      0.01000031	      0.07533026	      0.01000031	      0.07034649	      0.01000031	      0.14298243	      0.01000031	      0.14536228	      0.01000031	      0.08708308
      0.91397007	     -0.54436258	     12.58015778	    -14.67332950	      8.16783749	      0.01000028	      0.14124630	      0.01000028	      0.07535720	      0.01000028	      0.07037325	      0.01000028	      0.14299536	      0.01000028	      0.14535882	      0.01000028	      0.08708179
